# xmcd CD database file
#
# Track frame offsets:
#	150
#	19852
#	39267
#	58182
#	77640
#	99145
#	120017
#	144847
#	162532
#	184045
#
# Disc length: 2768 seconds
#
# Revision: 0
# Processed by: cddbd v1.4PL0 Copyright (c) Steve Scherf et al.
# Submitted via: CDex 1.40Beta9
#
DISCID=6e0ace0a
DTITLE=Dr. Harmonica - The Best Of
DYEAR=1999
DGENRE=Blues
TTITLE0=Moving On
TTITLE1=Let Me Love You Baby
TTITLE2=Who Do You Love
TTITLE3=Manish Boy - Hootchie Cootchie Man
TTITLE4=Come Back Baby
TTITLE5=One Way Out
TTITLE6=Got My Mojo Working
TTITLE7=Statesboro Blues
TTITLE8=Foxy Lady - Purple Haze
TTITLE9=Hey Joe
EXTD=YEAR: 1999 ID3G: 0
EXTT0=
EXTT1=
EXTT2=
EXTT3=
EXTT4=
EXTT5=
EXTT6=
EXTT7=
EXTT8=
EXTT9=
PLAYORDER=
